<svg id="svg" version="1.1" xmlns="http://www.w3.org/2000/svg" xmlns:xlink="http://www.w3.org/1999/xlink" width="400" height="400" viewBox="0, 0, 400,400"><g id="svgg"><path id="path0" d="M191.974 31.227 C 154.883 33.476,122.793 45.553,94.868 67.772 C 29.216 120.011,11.824 212.362,53.959 285.000 C 56.965 290.182,60.951 296.168,61.117 295.750 C 61.195 295.555,62.024 293.559,62.960 291.316 C 72.741 267.865,77.095 245.359,80.653 199.868 C 83.463 163.944,88.086 150.567,102.757 135.921 C 116.136 122.565,144.616 109.120,164.079 106.971 C 164.947 106.875,165.941 106.752,166.288 106.698 C 172.472 105.734,185.895 106.678,196.215 108.803 L 200.456 109.677 203.320 108.944 C 223.819 103.700,241.228 109.627,247.228 123.892 L 248.060 125.869 251.990 127.421 C 266.737 133.243,277.208 136.937,287.733 140.028 C 329.366 152.259,344.263 172.405,331.043 198.601 C 326.611 207.385,322.438 212.451,307.895 226.705 C 286.851 247.330,282.115 252.177,274.463 260.921 C 244.453 295.215,229.433 326.591,229.364 355.132 C 229.346 362.510,229.785 366.373,230.621 366.184 C 230.931 366.115,232.428 365.811,233.947 365.509 C 324.679 347.503,384.024 257.527,365.500 166.054 C 349.099 85.066,273.450 26.288,191.974 31.227 M228.289 40.918 C 228.868 41.006,230.704 41.253,232.368 41.468 C 247.512 43.421,261.387 48.475,273.226 56.350 C 282.985 62.841,307.672 83.343,318.658 94.079 C 341.197 116.106,355.666 145.267,359.201 175.789 C 359.360 177.164,359.546 178.762,359.615 179.339 C 360.451 186.408,360.260 199.177,359.199 207.105 C 358.918 209.204,358.687 211.069,358.686 211.250 C 358.685 211.431,358.407 211.579,358.068 211.579 C 357.509 211.579,357.423 211.403,357.127 209.671 C 349.574 165.442,335.981 130.200,314.571 99.342 C 303.179 82.923,291.675 73.163,274.814 65.612 C 253.020 55.853,233.189 49.363,211.049 44.745 C 202.547 42.972,202.915 43.077,203.007 42.433 C 203.205 41.057,221.844 39.939,228.289 40.918 " stroke="none" fill="#fcec8c" fill-rule="evenodd"></path><path id="path1" d="M209.713 40.938 C 204.883 41.475,203.087 41.875,203.007 42.433 C 202.915 43.077,202.547 42.972,211.049 44.745 C 233.189 49.363,253.020 55.853,274.814 65.612 C 291.675 73.163,303.179 82.923,314.571 99.342 C 335.981 130.200,349.574 165.442,357.127 209.671 C 357.423 211.403,357.509 211.579,358.068 211.579 C 358.407 211.579,358.685 211.431,358.686 211.250 C 358.687 211.069,358.918 209.204,359.199 207.105 C 360.260 199.177,360.451 186.408,359.615 179.339 C 359.546 178.762,359.360 177.164,359.201 175.789 C 355.666 145.267,341.197 116.106,318.658 94.079 C 307.672 83.343,282.985 62.841,273.226 56.350 C 261.387 48.475,247.512 43.421,232.368 41.468 C 230.704 41.253,228.868 41.006,228.289 40.918 C 225.910 40.556,213.016 40.570,209.713 40.938 M170.299 126.212 C 148.286 129.902,136.408 155.496,147.778 174.739 C 161.700 198.299,196.338 195.700,206.423 170.339 C 215.795 146.771,195.505 121.987,170.299 126.212 M180.984 136.201 C 196.782 139.749,204.106 157.978,195.141 171.443 C 184.591 187.290,160.260 183.994,154.230 165.901 C 148.605 149.027,163.662 132.312,180.984 136.201 M291.051 184.177 C 283.300 186.720,284.917 198.035,293.026 198.001 C 302.051 197.963,302.432 184.496,293.421 184.046 C 292.480 183.999,291.414 184.058,291.051 184.177 " stroke="none" fill="#fcfcfc" fill-rule="evenodd"></path><path id="path2" d="M190.658 17.397 C 83.186 22.838,3.632 119.840,19.102 226.579 C 30.626 306.088,94.035 369.494,173.421 380.892 C 292.742 398.022,395.438 298.189,381.563 178.553 C 370.512 83.271,286.716 12.533,190.658 17.397 M209.474 31.320 C 316.227 37.845,390.043 138.889,363.557 242.237 C 347.624 304.404,296.410 353.113,233.947 365.509 C 232.428 365.811,230.931 366.115,230.621 366.184 C 229.785 366.373,229.346 362.510,229.364 355.132 C 229.433 326.591,244.453 295.215,274.463 260.921 C 282.115 252.177,286.851 247.330,307.895 226.705 C 322.438 212.451,326.611 207.385,331.043 198.601 C 344.263 172.404,329.377 152.272,287.733 140.027 C 273.383 135.807,252.602 128.121,243.607 123.707 C 233.084 118.541,206.858 110.027,201.377 109.996 C 200.794 109.993,200.732 109.938,201.053 109.708 C 201.392 109.464,201.386 109.444,201.011 109.563 C 200.772 109.639,198.640 109.303,196.275 108.816 C 185.895 106.678,172.489 105.732,166.288 106.698 C 165.941 106.752,164.947 106.875,164.079 106.971 C 144.616 109.120,116.136 122.565,102.757 135.921 C 88.086 150.567,83.463 163.944,80.653 199.868 C 77.095 245.359,72.741 267.865,62.960 291.316 C 62.024 293.559,61.195 295.555,61.117 295.750 C 60.951 296.168,56.965 290.182,53.959 285.000 C 11.824 212.362,29.216 120.011,94.868 67.772 C 122.793 45.553,154.883 33.476,191.974 31.227 C 195.294 31.026,205.549 31.081,209.474 31.320 M213.358 107.291 C 213.686 107.354,214.159 107.352,214.411 107.286 C 214.663 107.220,214.395 107.169,213.816 107.172 C 213.237 107.175,213.031 107.228,213.358 107.291 M220.855 107.287 C 221.109 107.353,221.523 107.353,221.776 107.287 C 222.030 107.220,221.822 107.166,221.316 107.166 C 220.809 107.166,220.602 107.220,220.855 107.287 M181.479 126.195 C 212.765 131.622,218.709 173.934,190.132 187.786 C 169.043 198.009,144.441 183.199,143.501 159.716 C 142.668 138.899,161.072 122.655,181.479 126.195 M175.461 135.712 C 175.786 135.775,176.319 135.775,176.645 135.712 C 176.970 135.649,176.704 135.598,176.053 135.598 C 175.401 135.598,175.135 135.649,175.461 135.712 M152.970 158.553 C 152.972 159.276,153.023 159.541,153.084 159.141 C 153.144 158.741,153.142 158.149,153.080 157.825 C 153.018 157.502,152.968 157.829,152.970 158.553 M296.184 184.674 C 302.761 188.065,300.414 197.970,293.026 198.001 C 284.917 198.035,283.300 186.720,291.051 184.177 C 292.178 183.808,295.041 184.085,296.184 184.674 M324.868 207.280 C 317.656 213.325,312.426 216.795,303.026 221.770 C 282.644 232.558,256.727 239.997,239.267 240.070 C 224.513 240.132,212.134 236.029,204.138 228.426 C 201.831 226.232,201.610 225.462,203.634 226.668 C 209.679 230.268,216.637 232.535,225.526 233.802 C 230.230 234.472,246.107 234.492,250.263 233.833 C 250.625 233.776,251.750 233.651,252.763 233.555 C 259.696 232.900,268.628 231.118,277.237 228.671 C 295.317 223.531,315.314 214.224,324.342 206.746 C 324.868 206.310,325.219 206.180,325.395 206.355 C 325.570 206.531,325.395 206.839,324.868 207.280 " stroke="none" fill="#8cc43c" fill-rule="evenodd"></path><path id="path3" d="M171.184 136.176 C 153.845 139.959,147.161 161.420,159.286 174.381 C 168.199 183.909,183.724 183.998,192.645 174.570 C 204.978 161.539,198.290 139.865,180.799 136.186 C 178.498 135.702,173.381 135.697,171.184 136.176 M324.342 206.746 C 315.314 214.224,295.317 223.531,277.237 228.671 C 268.628 231.118,259.696 232.900,252.763 233.555 C 251.750 233.651,250.625 233.776,250.263 233.833 C 246.107 234.492,230.230 234.472,225.526 233.802 C 216.637 232.535,209.679 230.268,203.634 226.668 C 201.610 225.462,201.831 226.232,204.138 228.426 C 214.730 238.497,232.445 242.249,253.109 238.797 C 277.417 234.737,305.560 222.891,321.534 209.996 C 325.638 206.683,325.682 206.642,325.395 206.355 C 325.219 206.180,324.868 206.310,324.342 206.746 " stroke="none" fill="#5c5c5c" fill-rule="evenodd"></path><path id="path4" d="M212.368 107.412 C 209.645 107.669,204.404 108.670,202.105 109.373 L 200.658 109.815 202.763 110.176 C 212.843 111.907,233.560 118.764,243.421 123.633 C 245.664 124.741,247.591 125.690,247.703 125.742 C 248.007 125.884,246.915 123.228,245.991 121.579 C 240.054 110.983,228.071 105.933,212.368 107.412 " stroke="none" fill="#149c4c" fill-rule="evenodd"></path></g></svg>